<?xml version="1.0" encoding="utf-8"?>
<!-- Generator: Adobe Illustrator 17.1.0, SVG Export Plug-In . SVG Version: 6.00 Build 0)  -->
<!DOCTYPE svg PUBLIC "-//W3C//DTD SVG 1.1//EN" "http://www.w3.org/Graphics/SVG/1.1/DTD/svg11.dtd">
<svg version="1.1" id="Layer_5" xmlns="http://www.w3.org/2000/svg" xmlns:xlink="http://www.w3.org/1999/xlink" x="0px" y="0px"
	 viewBox="0 0 500 500" enable-background="new 0 0 500 500" xml:space="preserve">
<g>
	<path fill="#FFFFFF" stroke="#000000" stroke-width="9" stroke-miterlimit="10" d="M444.1,206.8c-37.6-14.2-93.1-14.2-144.8-2.1
		C280.2,136.6,233.8,6.1,148.6,6.1C80.8,6.1,39.4,213.8,39.2,261c-0.2,53.1,9.7,113.2,66.8,144.1c9,4.9,41.7,21.3,65.4,24.1
		c34.1,72.2,111.1,77.1,171,42.3c55.1-32.1,88.2-102,105-158.2C469.7,264.1,472.8,217.6,444.1,206.8z"/>
	<path fill="#FFFFFF" stroke="#000000" stroke-width="9" stroke-miterlimit="10" d="M300.4,209.2"/>
	<g>
		<path fill="#FFFFFF" stroke="#000000" stroke-width="9" stroke-miterlimit="10" d="M444.1,206.8c-108.5-41-364.7,36.3-253.3,180.5
			C338,578.1,528.6,238.7,444.1,206.8z"/>
		<path fill="#FFFFFF" stroke="#000000" stroke-width="9" stroke-miterlimit="10" d="M190.8,387.1c-21.4-27.8-29.2-52.9-27.1-75.3
			c-0.2,0-0.3,0.1-0.3,0.1s-11.1,32-7.4,60.9c15.6,124.7,113.6,141.1,186.5,98.8c55.8-32.4,89-101,105.5-160c0,0,0,0,0,0
			C404.8,409.5,288.3,513.4,190.8,387.1z"/>
		<path fill="#FFFFFF" stroke="#000000" stroke-width="9" stroke-miterlimit="10" d="M244.6,269.4c-57.1,69.1,80.9,152.2,132.4,60.5
			C427.9,239.4,292.7,211.1,244.6,269.4z"/>
	</g>
</g>
</svg>
